<svg width="25" height="24" viewBox="0 0 25 24" fill="none" xmlns="http://www.w3.org/2000/svg">
<path d="M13.1557 5.27396V18H10.0597V12.69H5.2357V18H2.1577V5.27396H5.2357V10.206H10.0597V5.27396H13.1557Z" fill="black"/>
<path d="M14.821 15.552C18.637 12.828 20.545 10.662 20.545 9.05396C20.545 8.06996 20.119 7.57796 19.267 7.57796C18.787 7.57796 18.433 7.74596 18.205 8.08196C17.989 8.41796 17.869 8.93996 17.845 9.64796H14.839C14.911 8.09996 15.379 6.93596 16.243 6.15596C17.107 5.37596 18.199 4.98596 19.519 4.98596C20.899 4.98596 21.937 5.33396 22.633 6.02996C23.341 6.72596 23.695 7.63196 23.695 8.74796C23.695 9.98396 23.221 11.196 22.273 12.384C21.325 13.56 20.191 14.556 18.871 15.372H23.893V17.856H14.821V15.552Z" fill="black"/>
</svg>
